<?xml version="1.0" encoding="UTF-8" standalone="no"?>
<svg width="35px" height="35px" viewBox="0 0 35 35" version="1.1" xmlns="http://www.w3.org/2000/svg" xmlns:xlink="http://www.w3.org/1999/xlink">
    <!-- Generator: Sketch 3.8.3 (29802) - http://www.bohemiancoding.com/sketch -->
    <title>Group 4</title>
    <desc>Created with Sketch.</desc>
    <defs></defs>
    <g id="Page-1" stroke="none" stroke-width="1" fill="none" fill-rule="evenodd">
        <g id="Flat_Social_Icons" transform="translate(-222.000000, -120.000000)">
            <g id="Group-4" transform="translate(222.000000, 120.000000)">
                <path d="M17.605,34.085 C26.999,34.085 34.614,26.471 34.614,17.077 C34.614,7.685 26.999,0.07 17.605,0.07 C8.212,0.07 0.598,7.685 0.598,17.077 C0.598,26.471 8.212,34.085 17.605,34.085" id="Fill-172" fill="#ffffff"></path>
                <path d="M13.502,14.198 L15.261,14.198 L15.261,12.489 C15.261,11.735 15.28,10.573 15.827,9.853 C16.404,9.091 17.195,8.573 18.557,8.573 C20.775,8.573 21.709,8.889 21.709,8.889 L21.27,11.494 C21.27,11.494 20.537,11.283 19.853,11.283 C19.169,11.283 18.557,11.528 18.557,12.211 L18.557,14.198 L21.361,14.198 L21.165,16.742 L18.557,16.742 L18.557,25.581 L15.261,25.581 L15.261,16.742 L13.502,16.742 L13.502,14.198" id="Fill-173" fill="#2c3e50"></path>
            </g>
        </g>
    </g>
</svg>
