<?xml version="1.0" encoding="UTF-8" standalone="no"?>
<svg width="35px" height="35px" viewBox="0 0 35 35" version="1.1" xmlns="http://www.w3.org/2000/svg" xmlns:xlink="http://www.w3.org/1999/xlink">
    <!-- Generator: Sketch 3.8.3 (29802) - http://www.bohemiancoding.com/sketch -->
    <title>Group 3</title>
    <desc>Created with Sketch.</desc>
    <defs></defs>
    <g id="Page-1" stroke="none" stroke-width="1" fill="none" fill-rule="evenodd">
        <g id="Flat_Social_Icons" transform="translate(-579.000000, -171.000000)">
            <g id="Group-3" transform="translate(579.000000, 171.000000)">
                <path d="M17.77,34.109 C27.164,34.109 34.778,26.493 34.778,17.1 C34.778,7.708 27.164,0.093 17.77,0.093 C8.375,0.093 0.762,7.708 0.762,17.1 C0.762,26.493 8.375,34.109 17.77,34.109" id="Fill-203" fill="#ffffff"></path>
                <path d="M24.619,22.318 C24.619,23.217 23.888,23.948 22.989,23.948 L12.555,23.948 C11.656,23.948 10.925,23.217 10.925,22.318 L10.925,15.355 L13.464,15.355 C13.245,15.895 13.122,16.484 13.122,17.101 C13.122,19.665 15.208,21.752 17.772,21.752 C20.336,21.752 22.422,19.665 22.422,17.101 C22.422,16.484 22.298,15.895 22.08,15.355 L24.619,15.355 L24.619,22.318 L24.619,22.318 Z M15.345,15.355 C15.889,14.601 16.773,14.107 17.772,14.107 C18.771,14.107 19.655,14.601 20.199,15.355 C20.554,15.847 20.766,16.449 20.766,17.101 C20.766,18.751 19.422,20.094 17.772,20.094 C16.122,20.094 14.779,18.751 14.779,17.101 C14.779,16.449 14.991,15.847 15.345,15.355 L15.345,15.355 Z M23.932,10.557 L24.308,10.556 L24.308,13.439 L21.434,13.448 L21.424,10.565 L23.932,10.557 L23.932,10.557 Z M22.989,8.597 L12.555,8.597 C10.743,8.597 9.268,10.071 9.268,11.884 L9.268,22.318 C9.268,24.131 10.743,25.605 12.555,25.605 L22.989,25.605 C24.801,25.605 26.276,24.131 26.276,22.318 L26.276,11.884 C26.276,10.071 24.801,8.597 22.989,8.597 L22.989,8.597 Z" id="Fill-243" fill="#2c3e50"></path>
            </g>
        </g>
    </g>
</svg>
